<svg xmlns="http://www.w3.org/2000/svg" viewBox="0 0 1920 1080" role="img" aria-label="Black and gold secret listening chamber">
  <defs>
    <linearGradient id="bg" x1="0" y1="0" x2="0" y2="1"><stop stop-color="#030201"/><stop offset=".58" stop-color="#0b0804"/><stop offset="1" stop-color="#000"/></linearGradient>
    <radialGradient id="glow" cx="50%" cy="32%" r="58%"><stop stop-color="#d6a83c" stop-opacity=".38"/><stop offset=".45" stop-color="#7b4d0e" stop-opacity=".13"/><stop offset="1" stop-color="#000" stop-opacity="0"/></radialGradient>
    <linearGradient id="gold" x1="0" y1="0" x2="1" y2="1"><stop stop-color="#fff0a5"/><stop offset=".24" stop-color="#d8a83d"/><stop offset=".55" stop-color="#7f4d0c"/><stop offset=".8" stop-color="#e9bd55"/><stop offset="1" stop-color="#5c3507"/></linearGradient>
    <filter id="blur"><feGaussianBlur stdDeviation="22"/></filter>
    <filter id="shadow"><feDropShadow dx="0" dy="12" stdDeviation="15" flood-color="#000" flood-opacity=".9"/></filter>
    <pattern id="marble" width="140" height="140" patternUnits="userSpaceOnUse"><path d="M-20 40C30 5 55 85 110 35S170 25 205-10" fill="none" stroke="#c38b28" stroke-opacity=".08" stroke-width="3"/><path d="M20 150C55 105 90 155 145 90" fill="none" stroke="#fff" stroke-opacity=".035" stroke-width="2"/></pattern>
  </defs>
  <rect width="1920" height="1080" fill="url(#bg)"/>
  <rect width="1920" height="1080" fill="url(#marble)"/>
  <ellipse cx="960" cy="300" rx="760" ry="520" fill="url(#glow)"/>
  <g opacity=".82" fill="none" stroke="url(#gold)" filter="url(#shadow)">
    <path d="M355 1080V280Q355 90 545 90H1375Q1565 90 1565 280V1080" stroke-width="22"/>
    <path d="M410 1080V310Q410 150 570 150H1350Q1510 150 1510 310V1080" stroke-width="6"/>
    <rect x="610" y="205" width="700" height="515" rx="38" stroke-width="12"/>
    <rect x="652" y="247" width="616" height="431" rx="28" stroke-width="3" opacity=".7"/>
  </g>
  <g opacity=".45" filter="url(#blur)" fill="#e6b84c"><ellipse cx="310" cy="720" rx="210" ry="90"/><ellipse cx="1610" cy="720" rx="210" ry="90"/></g>
  <g fill="#080603" stroke="url(#gold)" stroke-width="8" filter="url(#shadow)">
    <circle cx="220" cy="460" r="118"/><circle cx="1700" cy="460" r="118"/>
    <circle cx="220" cy="760" r="165"/><circle cx="1700" cy="760" r="165"/>
  </g>
  <g fill="none" stroke="#d8a83d" opacity=".72">
    <circle cx="220" cy="460" r="72" stroke-width="5"/><circle cx="1700" cy="460" r="72" stroke-width="5"/>
    <circle cx="220" cy="760" r="102" stroke-width="7"/><circle cx="1700" cy="760" r="102" stroke-width="7"/>
    <circle cx="220" cy="760" r="28" stroke-width="4"/><circle cx="1700" cy="760" r="28" stroke-width="4"/>
  </g>
  <g fill="none" stroke="url(#gold)" stroke-linecap="round" opacity=".92">
    <path d="M705 520l22-65 18 108 25-168 22 220 27-132 24 72 24-166 27 224 22-154 23 87 25-197 25 255 26-177 23 105 24-139 22 122 24-84 24 63 24-39 22 25" stroke-width="8"/>
  </g>
  <g fill="url(#gold)" opacity=".75"><path d="M960 90l25 52 58 8-42 40 10 57-51-27-51 27 10-57-42-40 58-8z"/></g>
  <path d="M0 965Q480 865 960 930T1920 965V1080H0Z" fill="#000" opacity=".72"/>
  <rect x="0" y="0" width="1920" height="1080" fill="none" stroke="#b98020" stroke-opacity=".22" stroke-width="18"/>
</svg>