<svg xmlns="http://www.w3.org/2000/svg" viewBox="0 0 1200 760" role="img" aria-label="DOMINOES preview card">
  <defs>
    <radialGradient id="g1" cx="28%" cy="15%" r="75%">
      <stop offset="0%" stop-color="#f2d27b" stop-opacity=".55"/>
      <stop offset="42%" stop-color="#caa24a" stop-opacity=".16"/>
      <stop offset="100%" stop-color="#000" stop-opacity="0"/>
    </radialGradient>
    <radialGradient id="g2" cx="82%" cy="18%" r="58%">
      <stop offset="0%" stop-color="#8d0d0d" stop-opacity=".38"/>
      <stop offset="100%" stop-color="#000" stop-opacity="0"/>
    </radialGradient>
    <linearGradient id="bg" x1="0" y1="0" x2="1" y2="1">
      <stop offset="0%" stop-color="#211a0d"/>
      <stop offset="45%" stop-color="#080806"/>
      <stop offset="100%" stop-color="#000"/>
    </linearGradient>
    <linearGradient id="gold" x1="0" y1="0" x2="0" y2="1">
      <stop offset="0%" stop-color="#fff4ad"/>
      <stop offset="48%" stop-color="#f2d27b"/>
      <stop offset="100%" stop-color="#8b641f"/>
    </linearGradient>
    <filter id="shadow" x="-30%" y="-30%" width="160%" height="160%">
      <feDropShadow dx="0" dy="14" stdDeviation="12" flood-color="#000" flood-opacity=".82"/>
      <feDropShadow dx="0" dy="0" stdDeviation="10" flood-color="#f2d27b" flood-opacity=".22"/>
    </filter>
    <pattern id="grid" width="56" height="56" patternUnits="userSpaceOnUse">
      <path d="M56 0H0v56" fill="none" stroke="#fff" stroke-opacity=".035" stroke-width="2"/>
    </pattern>
  </defs>

  <rect width="1200" height="760" fill="url(#bg)"/>
  <rect width="1200" height="760" fill="url(#grid)"/>
  <rect width="1200" height="760" fill="url(#g1)"/>
  <rect width="1200" height="760" fill="url(#g2)"/>
  <rect x="62" y="62" width="1076" height="636" rx="34" fill="none" stroke="#f2d27b" stroke-opacity=".22" stroke-width="3"/>
  <rect x="92" y="92" width="1016" height="576" rx="26" fill="none" stroke="#fff" stroke-opacity=".07" stroke-width="2"/>
  <path d="M0 565 C240 468 394 492 600 566 C804 638 990 625 1200 535 L1200 760 L0 760 Z" fill="#000" opacity=".52"/>

  
  <g filter="url(#shadow)">
    <ellipse cx="600" cy="405" rx="370" ry="108" fill="#080604" stroke="#f2d27b" stroke-opacity=".30" stroke-width="5"/>
    <g transform="rotate(-12 430 338)"><rect x="345" y="278" width="170" height="92" rx="16" fill="#f5efe3" stroke="#caa24a" stroke-width="5"/><line x1="430" y1="283" x2="430" y2="365" stroke="#111" stroke-width="3"/><circle cx="385" cy="310" r="7" fill="#090806"/><circle cx="385" cy="340" r="7" fill="#090806"/><circle cx="474" cy="310" r="7" fill="#090806"/><circle cx="454" cy="340" r="7" fill="#090806"/><circle cx="494" cy="340" r="7" fill="#090806"/></g>
    <g transform="rotate(10 620 328)"><rect x="535" y="278" width="170" height="92" rx="16" fill="#f5efe3" stroke="#caa24a" stroke-width="5"/><line x1="620" y1="283" x2="620" y2="365" stroke="#111" stroke-width="3"/><circle cx="576" cy="310" r="7" fill="#090806"/><circle cx="604" cy="338" r="7" fill="#090806"/><circle cx="662" cy="310" r="7" fill="#090806"/><circle cx="682" cy="340" r="7" fill="#090806"/></g>
    <g transform="rotate(-3 755 370)"><rect x="700" y="325" width="170" height="92" rx="16" fill="#f5efe3" stroke="#caa24a" stroke-width="5"/><line x1="785" y1="330" x2="785" y2="412" stroke="#111" stroke-width="3"/><circle cx="742" cy="357" r="7" fill="#090806"/><circle cx="762" cy="387" r="7" fill="#090806"/><circle cx="826" cy="357" r="7" fill="#090806"/><circle cx="846" cy="387" r="7" fill="#090806"/></g>
    <text x="600" y="198" text-anchor="middle" font-family="Impact, Arial Black, sans-serif" font-size="46" fill="url(#gold)" letter-spacing="6">DOUBLE SIX TABLE</text>
  </g>

  <text x="600" y="578" text-anchor="middle" font-family="Impact, Arial Black, sans-serif" font-size="66" fill="#f5efe3" letter-spacing="5" filter="url(#shadow)">DOMINOES</text>
  <text x="600" y="632" text-anchor="middle" font-family="Arial, sans-serif" font-size="24" fill="#f2d27b" letter-spacing="9" font-weight="800">STREET TABLE</text>
  <text x="86" y="707" font-family="Arial, sans-serif" font-size="18" fill="#f2d27b" opacity=".78" letter-spacing="5">PLAY 3D</text>
  <text x="1000" y="707" font-family="Arial, sans-serif" font-size="18" fill="#f2d27b" opacity=".78" letter-spacing="5">FAN MODE</text>
</svg>