<svg xmlns="http://www.w3.org/2000/svg" viewBox="0 0 1600 900">
<defs>
<linearGradient id="bg" x1="0" y1="0" x2="1" y2="1">
<stop offset="0" stop-color="#050505"/><stop offset=".45" stop-color="#16100a"/><stop offset="1" stop-color="#000"/>
</linearGradient>
<radialGradient id="glow" cx=".5" cy=".28" r=".65">
<stop offset="0" stop-color="#f2d27b" stop-opacity=".24"/><stop offset=".45" stop-color="#caa24a" stop-opacity=".08"/><stop offset="1" stop-color="#000" stop-opacity="0"/>
</radialGradient>
<filter id="blur"><feGaussianBlur stdDeviation="16"/></filter>
</defs>
<rect width="1600" height="900" fill="url(#bg)"/>
<rect width="1600" height="900" fill="url(#glow)"/>
<g opacity=".10" stroke="#f2d27b" stroke-width="2">
<path d="M0 690 C240 570 500 620 760 505 C1040 380 1280 420 1600 330"/>
<path d="M0 780 C300 640 570 690 900 560 C1180 455 1380 500 1600 450"/>
</g>
<g opacity=".18" filter="url(#blur)">
<circle cx="260" cy="190" r="120" fill="#caa24a"/>
<circle cx="1280" cy="690" r="150" fill="#7c5513"/>
</g>
<g opacity=".10" fill="#f2d27b">
<circle cx="180" cy="170" r="3"/><circle cx="420" cy="260" r="2"/><circle cx="1190" cy="170" r="4"/><circle cx="1340" cy="610" r="3"/><circle cx="820" cy="260" r="2"/><circle cx="980" cy="760" r="2"/>
</g>
</svg>