<svg xmlns="http://www.w3.org/2000/svg" width="512" height="512" viewBox="0 0 512 512"><defs><linearGradient id="g" x1="0" x2="1" y1="0" y2="1"><stop offset="0" stop-color="#16100d"/><stop offset=".5" stop-color="#0d0b0c"/><stop offset="1" stop-color="#1b120d"/></linearGradient></defs><rect width="512" height="512" fill="url(#g)"/><g opacity=".11" stroke="#f0b85a" stroke-width="8"><path d="M32 86c80 42 150 42 234 2M112 224c48 44 146 54 288 16M48 410c102-24 180-22 290 8"/><path d="M42 154c64-16 92-18 158 10M256 320c42-22 82-30 166-26"/></g><g opacity=".06" fill="#fff"><circle cx="84" cy="108" r="4"/><circle cx="126" cy="116" r="4"/><circle cx="138" cy="92" r="4"/><circle cx="366" cy="210" r="4"/><circle cx="394" cy="198" r="4"/><circle cx="408" cy="228" r="4"/></g></svg>