<svg xmlns="http://www.w3.org/2000/svg" viewBox="0 0 1600 1000">
  <defs>
    <linearGradient id="table" x1="0" x2="1" y1="0" y2="1"><stop stop-color="#050505"/><stop offset=".5" stop-color="#231608"/><stop offset="1" stop-color="#030303"/></linearGradient>
    <linearGradient id="gold" x1="0" x2="1" y1="0" y2="1"><stop stop-color="#fff4c0"/><stop offset=".5" stop-color="#f4c65a"/><stop offset="1" stop-color="#80510f"/></linearGradient>
    <linearGradient id="steel" x1="0" x2="1" y1="0" y2="1"><stop stop-color="#f2f2f2"/><stop offset=".5" stop-color="#8b9098"/><stop offset="1" stop-color="#20242a"/></linearGradient>
    <filter id="glow"><feDropShadow dx="0" dy="6" stdDeviation="5" flood-color="#f4c65a" flood-opacity=".35"/></filter>
    <filter id="shadow"><feDropShadow dx="0" dy="8" stdDeviation="6" flood-color="#000" flood-opacity=".55"/></filter>
  </defs>
  <rect width="1600" height="1000" fill="url(#table)"/>
  <path d="M120 720c190-130 330-40 510-130s320-180 520-90 280 50 390-70" fill="none" stroke="#f4c65a" stroke-opacity=".16" stroke-width="18"/>
  <path d="M0 280c210-60 350 90 540-10 250-130 410-80 620 10 150 65 300 40 440-40" fill="none" stroke="#fff2bd" stroke-opacity=".08" stroke-width="9"/>
  <g opacity=".22">
    <circle cx="230" cy="160" r="130" fill="#f4c65a"/><circle cx="1310" cy="230" r="170" fill="#8d2420"/><circle cx="850" cy="780" r="200" fill="#f4c65a"/>
  </g>

  <symbol id="art-start" viewBox="0 0 64 64"><path d="M12 45h40v8H12zM19 11h26l7 34H12z" fill="url(#gold)" filter="url(#shadow)"/><path d="M22 34h20M27 22h10" stroke="#111" stroke-width="5"/></symbol>
  <symbol id="art-county-hold" viewBox="0 0 64 64"><rect x="12" y="12" width="40" height="42" rx="4" fill="#20242a" stroke="url(#gold)" stroke-width="4" filter="url(#shadow)"/><path d="M22 14v38M32 14v38M42 14v38" stroke="#f4c65a" stroke-width="4"/></symbol>
  <symbol id="art-free-studio-session" viewBox="0 0 64 64"><rect x="13" y="20" width="38" height="28" rx="8" fill="url(#steel)" stroke="url(#gold)" stroke-width="4" filter="url(#shadow)"/><circle cx="24" cy="34" r="6" fill="#111"/><circle cx="40" cy="34" r="6" fill="#111"/><path d="M22 14h20" stroke="#f4c65a" stroke-width="5"/></symbol>
  <symbol id="art-go-to-county" viewBox="0 0 64 64"><path d="M12 17h31l9 12-9 12H12z" fill="#8d2420" stroke="url(#gold)" stroke-width="4" filter="url(#shadow)"/><path d="M22 29h24M37 20l9 9-9 9" stroke="#fff2bd" stroke-width="4" fill="none"/></symbol>
  <symbol id="art-trap" viewBox="0 0 64 64"><path d="M10 34 32 15l22 19v19H10z" fill="#21140a" stroke="url(#gold)" stroke-width="4" filter="url(#shadow)"/><path d="M23 53V38h18v15M18 31h28" stroke="#f4c65a" stroke-width="3"/></symbol>
  <symbol id="art-store" viewBox="0 0 64 64"><rect x="12" y="22" width="40" height="30" fill="#222" stroke="url(#gold)" stroke-width="4"/><path d="M12 22h40l-5-10H17z" fill="url(#gold)"/><path d="M22 52V36h20v16" stroke="#fff2bd" stroke-width="3"/></symbol>
  <symbol id="art-liquor" viewBox="0 0 64 64"><path d="M26 12h12v11l6 8v21H20V31l6-8z" fill="#24413a" stroke="url(#gold)" stroke-width="4" filter="url(#shadow)"/><path d="M24 37h16" stroke="#f4c65a" stroke-width="5"/></symbol>
  <symbol id="art-barber" viewBox="0 0 64 64"><rect x="22" y="10" width="20" height="44" rx="8" fill="#f5f5f5" stroke="url(#gold)" stroke-width="4"/><path d="m24 16 16 10M24 30l16 10M24 44l12 8" stroke="#b51f2a" stroke-width="4"/></symbol>
  <symbol id="art-warehouse" viewBox="0 0 64 64"><path d="M10 29 32 15l22 14v24H10z" fill="#2b2b2b" stroke="url(#gold)" stroke-width="4"/><path d="M20 53V36h24v17M24 41h16M24 47h16" stroke="#f4c65a" stroke-width="3"/></symbol>
  <symbol id="art-studio" viewBox="0 0 64 64"><rect x="12" y="20" width="40" height="30" rx="6" fill="#1a1a1a" stroke="url(#gold)" stroke-width="4"/><circle cx="24" cy="35" r="7" fill="#111" stroke="#f4c65a" stroke-width="3"/><circle cx="40" cy="35" r="7" fill="#111" stroke="#f4c65a" stroke-width="3"/></symbol>
  <symbol id="art-club" viewBox="0 0 64 64"><path d="M18 50V20h28v30z" fill="#181025" stroke="url(#gold)" stroke-width="4"/><path d="M24 27h16M24 36h16M20 50h24" stroke="#c37cff" stroke-width="4"/></symbol>
  <symbol id="art-car" viewBox="0 0 64 64"><path d="M8 38c6-12 13-15 25-15h10c6 0 12 4 16 14l2 9H7z" fill="url(#gold)" stroke="#fff2bd" stroke-width="3"/><circle cx="20" cy="47" r="6" fill="#111"/><circle cx="49" cy="47" r="6" fill="#111"/></symbol>
  <symbol id="art-casino" viewBox="0 0 64 64"><rect x="13" y="13" width="38" height="38" rx="9" fill="#111" stroke="url(#gold)" stroke-width="4"/><circle cx="32" cy="32" r="13" fill="#8d2420"/><circle cx="32" cy="32" r="5" fill="#f4c65a"/></symbol>
  <symbol id="art-vault" viewBox="0 0 64 64"><rect x="10" y="14" width="44" height="40" rx="6" fill="#222" stroke="url(#gold)" stroke-width="4"/><circle cx="32" cy="34" r="14" fill="#111" stroke="#f4c65a" stroke-width="4"/><path d="M32 21v26M19 34h26" stroke="#f4c65a" stroke-width="3"/></symbol>
  <symbol id="art-video" viewBox="0 0 64 64"><rect x="12" y="22" width="32" height="22" rx="5" fill="#161616" stroke="url(#gold)" stroke-width="4"/><path d="m44 29 10-7v22l-10-7z" fill="#f4c65a"/></symbol>
  <symbol id="art-album" viewBox="0 0 64 64"><rect x="13" y="13" width="38" height="38" rx="4" fill="#111" stroke="url(#gold)" stroke-width="4"/><circle cx="32" cy="32" r="12" fill="none" stroke="#f4c65a" stroke-width="5"/><circle cx="32" cy="32" r="3" fill="#fff2bd"/></symbol>
  <symbol id="art-popup" viewBox="0 0 64 64"><path d="M12 25h40l-4 28H16z" fill="#222" stroke="url(#gold)" stroke-width="4"/><path d="M16 25 22 13h20l6 12" fill="none" stroke="#f4c65a" stroke-width="4"/><path d="M23 38h18" stroke="#fff2bd" stroke-width="4"/></symbol>
  <symbol id="art-chain" viewBox="0 0 64 64"><path d="M23 25c-9 0-14 5-14 12s5 12 14 12h7" fill="none" stroke="url(#gold)" stroke-width="7"/><path d="M34 25h7c9 0 14 5 14 12s-5 12-14 12" fill="none" stroke="url(#gold)" stroke-width="7"/></symbol>
  <symbol id="art-party" viewBox="0 0 64 64"><path d="M17 53 32 12l15 41z" fill="#8d2420" stroke="url(#gold)" stroke-width="4"/><circle cx="23" cy="36" r="4" fill="#f4c65a"/><circle cx="38" cy="30" r="4" fill="#fff2bd"/></symbol>
  <symbol id="art-map" viewBox="0 0 64 64"><path d="M12 18 25 13l14 7 13-5v31l-13 5-14-7-13 5z" fill="#18241e" stroke="url(#gold)" stroke-width="4"/><path d="M25 13v31M39 20v31" stroke="#f4c65a" stroke-width="3"/></symbol>
  <symbol id="art-tower" viewBox="0 0 64 64"><path d="M18 54V12h28v42z" fill="#171717" stroke="url(#gold)" stroke-width="4"/><path d="M25 20h4M36 20h4M25 31h4M36 31h4M25 42h4M36 42h4" stroke="#f4c65a" stroke-width="4"/></symbol>
  <symbol id="art-bart" viewBox="0 0 64 64"><rect x="11" y="17" width="42" height="31" rx="9" fill="url(#steel)" stroke="url(#gold)" stroke-width="4"/><path d="M20 26h24M20 37h24" stroke="#111" stroke-width="4"/><circle cx="23" cy="50" r="5" fill="#111"/><circle cx="41" cy="50" r="5" fill="#111"/></symbol>
  <symbol id="art-hustle" viewBox="0 0 64 64"><rect x="17" y="11" width="30" height="42" rx="5" fill="url(#gold)" stroke="#fff2bd" stroke-width="3"/><path d="M26 24h12M24 34h16" stroke="#111" stroke-width="4"/></symbol>
  <symbol id="art-raid" viewBox="0 0 64 64"><path d="M32 9 52 19v14c0 13-8 22-20 26-12-4-20-13-20-26V19z" fill="#8d2420" stroke="url(#gold)" stroke-width="4"/><path d="M24 28h16M24 38h16" stroke="#fff2bd" stroke-width="4"/></symbol>
  <symbol id="art-tax" viewBox="0 0 64 64"><rect x="15" y="13" width="34" height="42" rx="5" fill="#2b2418" stroke="url(#gold)" stroke-width="4"/><path d="M23 26h18M23 36h18M23 46h12" stroke="#f4c65a" stroke-width="4"/></symbol>
  <symbol id="art-business" viewBox="0 0 64 64"><rect x="14" y="20" width="36" height="32" fill="#161616" stroke="url(#gold)" stroke-width="4"/><path d="M18 20h28l-5-8H23zM24 52V38h16v14" fill="none" stroke="#f4c65a" stroke-width="4"/></symbol>
</svg>
